<svg id="_1" data-name="1" xmlns="http://www.w3.org/2000/svg" xmlns:xlink="http://www.w3.org/1999/xlink" viewBox="0 0 75.76 75.76"><defs><style>.cls-1{fill:url(#linear-gradient);}.cls-2{fill:#fff;}.cls-3{fill:none;stroke-miterlimit:10;stroke:url(#linear-gradient-2);}</style><linearGradient id="linear-gradient" x1="37.88" y1="-12.5" x2="37.88" y2="65.65" gradientUnits="userSpaceOnUse"><stop offset="0" stop-color="#005bb5"/><stop offset="1" stop-color="#0077cb"/></linearGradient><linearGradient id="linear-gradient-2" x1="34.37" y1="9.15" x2="43.26" y2="9.15" xlink:href="#linear-gradient"/></defs><rect class="cls-1" width="75.76" height="75.76" rx="10.89"/><path class="cls-2" d="M37.9,9.49A5.38,5.38,0,0,0,36.2,20a5.27,5.27,0,0,0,1.7.28A5.22,5.22,0,0,0,39.54,20,5.38,5.38,0,0,0,37.9,9.49Zm1.43,6.78a2,2,0,0,1-1.43.6,2,2,0,0,1-2-2,2,2,0,1,1,3.44,1.4Z"/><path class="cls-3" d="M37.67,13.85a10.8,10.8,0,0,1-1.91-3.07c-1-2.27-1.8-6.31,1.43-7.16,2.73-.73,4.53,1.83,5.18,4.14a8.55,8.55,0,0,1-.08,5.34,2.75,2.75,0,0,1-3.68,1.44A3.61,3.61,0,0,1,37.67,13.85Z"/><path class="cls-2" d="M52.93,52.89l-5,6.51a7.26,7.26,0,0,1-4.8,2.77h0l-2.34.41,1-1.4,5-6.47,3.77-4.91.15-.18,1.6-2.09Z"/><polygon class="cls-2" points="50.55 34.37 50.55 49.8 46.78 54.71 46.78 39.27 50.55 34.37"/><polygon class="cls-2" points="32.73 48.6 30.36 56.36 27.54 52.68 29.11 47.53 29.21 47.53 30.71 47.98 32.73 48.6"/><polygon class="cls-2" points="29.21 47.53 29.11 47.53 29.12 47.5 29.21 47.53"/><path class="cls-2" d="M35.18,62.58h0l-2.34-.39a7.35,7.35,0,0,1-4.86-2.8l-5.13-6.68.67-5.16a.06.06,0,0,1,.05,0,.09.09,0,0,1,.07,0l3.94,5.12,2.82,3.68,3.73,4.82Z"/><polygon class="cls-2" points="35.18 62.59 35.14 62.58 35.17 62.58 35.18 62.59"/><path class="cls-2" d="M31.79,36.08c-.27,2.06-.43,3.24-.69,5.29l-4.66-6-.34-.44-2.82-3.67-.31-.4-4.51-5.87,5.29.69Z"/><path class="cls-2" d="M44.48,36.08c.27,2.06.42,3.24.69,5.29l4.65-6,.34-.44L53,31.21l.31-.4,4.51-5.87-5.28.69Z"/><polygon class="cls-2" points="26.11 34.88 23.94 41.98 20.34 40.88 23.28 31.21 26.11 34.88"/><rect class="cls-2" x="35.18" y="62.58" height="0.01"/><path class="cls-2" d="M43.1,28.13H39.86L41,47.53l.77,13.14-.27.92-.75,1L38,66.21l-2.83-3.62h0l-.77-1-.3-.93.73-13.13,1.09-19.4h-3.2l-.94-.94h0l.94-.94H36l.07-1.31L36.21,20a5.36,5.36,0,0,0,1.7.28,5.28,5.28,0,0,0,1.65-.26l.11,4.89.08,1.31H43.1l.94.94h0Z"/><path class="cls-2" d="M33.2,47.06l-.14.47-.33,1.07-2-.62-1.5-.45-.09,0-2.47-.76-.75-.22h0l-4.61-1.41-1.43-2.68.1-.34.37-1.21L23.94,42l7.86,2.4C32.35,45.39,32.65,46,33.2,47.06Z"/></svg>