<svg xmlns="http://www.w3.org/2000/svg" xmlns:xlink="http://www.w3.org/1999/xlink" viewBox="0 0 420.45 75.76"><defs><style>.cls-1{fill:url(#linear-gradient);}.cls-2{fill:url(#linear-gradient-2);}.cls-3{fill:url(#linear-gradient-3);}.cls-4{fill:url(#linear-gradient-4);}.cls-5{fill:url(#linear-gradient-5);}.cls-6{fill:url(#linear-gradient-6);}.cls-7{fill:url(#linear-gradient-7);}.cls-8{fill:url(#linear-gradient-8);}.cls-9{fill:url(#linear-gradient-9);}.cls-10{fill:url(#linear-gradient-10);}.cls-11{fill:url(#linear-gradient-11);}.cls-12{fill:url(#linear-gradient-12);}.cls-13{fill:#fff;}.cls-14{fill:none;stroke-miterlimit:10;stroke:url(#linear-gradient-13);}</style><linearGradient id="linear-gradient" x1="98.66" y1="24.74" x2="123.45" y2="24.74" gradientUnits="userSpaceOnUse"><stop offset="0" stop-color="#1e5dab"/><stop offset="1" stop-color="#2676bc"/></linearGradient><linearGradient id="linear-gradient-2" x1="127.81" y1="24.74" x2="150.71" y2="24.74" xlink:href="#linear-gradient"/><linearGradient id="linear-gradient-3" x1="153.82" y1="24.74" x2="183.87" y2="24.74" xlink:href="#linear-gradient"/><linearGradient id="linear-gradient-4" x1="187.36" y1="24.74" x2="223.08" y2="24.74" xlink:href="#linear-gradient"/><linearGradient id="linear-gradient-5" x1="226.58" y1="24.74" x2="256.63" y2="24.74" xlink:href="#linear-gradient"/><linearGradient id="linear-gradient-6" x1="260.12" y1="24.74" x2="289.19" y2="24.74" xlink:href="#linear-gradient"/><linearGradient id="linear-gradient-7" x1="303.18" y1="24.74" x2="310.41" y2="24.74" xlink:href="#linear-gradient"/><linearGradient id="linear-gradient-8" x1="315.24" y1="24.74" x2="344.32" y2="24.74" xlink:href="#linear-gradient"/><linearGradient id="linear-gradient-9" x1="348.87" y1="24.74" x2="374.64" y2="24.74" xlink:href="#linear-gradient"/><linearGradient id="linear-gradient-10" x1="379.4" y1="24.74" x2="386.63" y2="24.74" xlink:href="#linear-gradient"/><linearGradient id="linear-gradient-11" x1="390.4" y1="24.74" x2="420.45" y2="24.74" xlink:href="#linear-gradient"/><linearGradient id="linear-gradient-12" x1="37.88" y1="-12.5" x2="37.88" y2="65.65" xlink:href="#linear-gradient"/><linearGradient id="linear-gradient-13" x1="34.37" y1="9.15" x2="43.26" y2="9.15" xlink:href="#linear-gradient"/></defs><g id="Layer_2" data-name="Layer 2"><g id="Layer_1-2" data-name="Layer 1"><path class="cls-1" d="M114.09,21.6h-5.85c-1.69,0-2.36-.67-2.36-2V18.38c0-1.37.67-2.05,2.36-2.05H122V10.6H108c-6,0-9.34,1.93-9.34,7.78v1.18c0,5.85,3.33,7.77,9.34,7.77h5.82c1.69,0,2.4.68,2.4,2.16V31c0,1.49-.71,2.16-2.4,2.16H99.44v5.74h14.65c6,0,9.36-1.89,9.36-7.9v-1.5C123.45,23.49,120.1,21.6,114.09,21.6Z"/><path class="cls-2" d="M137,33.15c-1.37,0-2-.51-2-2v-4h14v-5.5H135V16.33h15.47V10.6h-22.7V31.66c0,4.91,2,7.23,7.3,7.23h15.6V33.15Z"/><path class="cls-3" d="M183.87,38.88h-7.59l-1.8-6.16L170,17.12c-.12-.51-.28-.79-.67-.79h-1.06c-.39,0-.55.28-.71.79l-4.39,15.6-1.81,6.16h-7.58l7.35-24.35c.74-2.52,2.23-3.93,5.06-3.93h5.19c2.86,0,4.36,1.41,5.11,3.93Z"/><path class="cls-4" d="M219.19,10.6H214c-2.51,0-3.85,1-4.32,3.53l-3.81,18.43c-.12.43-.2.63-.51.63h-.28c-.31,0-.39-.2-.47-.63l-3.85-18.43c-.47-2.55-1.81-3.53-4.32-3.53h-5.18c-2.83,0-3.9,1.77-3.9,4.16V38.89h7.23V16.81c0-.36.16-.48.4-.48h.23c.32,0,.39.2.47.63l3.73,17.57c.52,2.7,1.3,4.36,4,4.36H207c2.71,0,3.5-1.66,4-4.36L214.74,17c.09-.43.2-.63.48-.63h.23c.24,0,.4.12.4.48V38.89h7.23V14.76C223.08,12.37,222,10.6,219.19,10.6Z"/><path class="cls-5" d="M256.63,38.88h-7.58l-1.81-6.16-4.44-15.6c-.12-.51-.27-.79-.66-.79h-1.07c-.39,0-.54.28-.7.79L236,32.72l-1.8,6.16h-7.58l7.34-24.35c.75-2.52,2.24-3.93,5.07-3.93h5.19c2.87,0,4.36,1.41,5.1,3.93Z"/><path class="cls-6" d="M282,10.6V32.68c0,.39-.15.47-.38.47h-.32c-.28,0-.39-.12-.51-.51L274.46,14.1c-.75-2.56-1.92-3.5-4.47-3.5h-6c-2.82,0-3.89,1.77-3.89,4.16V38.89h7.23V16.81c0-.39.16-.48.39-.48h.32c.27,0,.39.12.55.52l6.28,18.54c.75,2.55,1.89,3.5,4.44,3.5h6c2.84,0,3.89-1.77,3.89-4.17V10.6Z"/><path class="cls-7" d="M303.18,10.6V38.89h7.23V10.6Z"/><path class="cls-8" d="M337.09,10.6V32.68c0,.39-.16.47-.4.47h-.31c-.28,0-.4-.12-.51-.51L329.58,14.1c-.74-2.56-1.92-3.5-4.48-3.5h-6c-2.83,0-3.89,1.77-3.89,4.16V38.89h7.23V16.81c0-.39.16-.48.4-.48h.31c.28,0,.39.12.55.52L330,35.39c.75,2.55,1.89,3.5,4.44,3.5h6c2.82,0,3.89-1.77,3.89-4.17V10.6Z"/><path class="cls-9" d="M364.59,10.6H348.87V38.89h15.72c6.59,0,10.05-3.27,10.05-10.14v-8C374.64,13.86,371.18,10.6,364.59,10.6Zm2.82,18.15c0,3.34-1.57,4.4-4,4.4H356.1V16.33h7.31c2.43,0,4,1.07,4,4.41Z"/><path class="cls-10" d="M379.4,10.6V38.89h7.23V10.6Z"/><path class="cls-11" d="M420.45,38.89h-7.58l-1.81-6.17-4.44-15.6c-.12-.51-.27-.79-.67-.79h-1.06c-.39,0-.55.28-.71.79l-4.39,15.6L398,38.89H390.4l7.35-24.36c.74-2.52,2.23-3.93,5.06-3.93H408c2.86,0,4.36,1.41,5.11,3.93Z"/><path d="M99.83,64.53h7.41c1.35,0,1.87-.57,1.87-1.81V61c0-1.24-.52-1.81-1.87-1.81h-4c-2.46,0-3.63-1.28-3.63-3.4V54.41c0-2.12,1.17-3.41,3.63-3.41h7v1.6h-7c-1.34,0-1.87.57-1.87,1.81v1.34c0,1.24.53,1.81,1.87,1.81h4c2.46,0,3.63,1.28,3.63,3.4v1.76c0,2.12-1.17,3.4-3.63,3.4H99.83Z"/><path d="M129.82,62.93V51h10.79v1.6h-9v4.91H140v1.6h-8.42v3.82c0,1.24.48,1.6,1.66,1.6h7.47v1.59h-7.47C130.78,66.12,129.82,65.05,129.82,62.93Z"/><path d="M163.48,52.45c.29-.9.71-1.45,1.66-1.45H167c.94,0,1.36.55,1.65,1.45l4.56,13.67h-1.8L170,61.86h-7.81l-1.43,4.26h-1.81Zm6,7.81-2.39-7.18c-.11-.31-.17-.48-.46-.48h-1.05c-.3,0-.36.17-.46.48l-2.4,7.18Z"/><path d="M213,51h1.76V66.12H213Z"/><path d="M234.15,64.53h7.41c1.34,0,1.87-.57,1.87-1.81V61c0-1.24-.53-1.81-1.87-1.81h-4c-2.46,0-3.64-1.28-3.64-3.4V54.41c0-2.12,1.18-3.41,3.64-3.41h7v1.6h-7c-1.35,0-1.87.57-1.87,1.81v1.34c0,1.24.52,1.81,1.87,1.81h4c2.45,0,3.63,1.28,3.63,3.4v1.76c0,2.12-1.18,3.4-3.63,3.4h-7.41Z"/><path d="M290.53,60.2a1.57,1.57,0,0,1-1.28-.82L284.55,51h2l3.91,7.23c.16.27.29.37.54.37h.76c.25,0,.38-.1.54-.37L296.24,51h2l-4.71,8.38a1.56,1.56,0,0,1-1.28.82v5.92h-1.76Z"/><path d="M315.65,62.3V54.83c0-2.54,1.36-4,4.26-4h4.14c2.89,0,4.26,1.5,4.26,4V62.3c0,2.54-1.37,4-4.26,4h-4.14C317,66.33,315.65,64.84,315.65,62.3Zm8.4,2.44c1.68,0,2.49-.78,2.49-2.44V54.83c0-1.66-.81-2.44-2.49-2.44h-4.14c-1.68,0-2.5.78-2.5,2.44V62.3c0,1.66.82,2.44,2.5,2.44Z"/><path d="M347.15,62.3V51h1.76V62.3c0,1.66.82,2.44,2.5,2.44h3.23c1.68,0,2.5-.78,2.5-2.44V51h1.76V62.3c0,2.54-1.36,4-4.26,4h-3.23C348.51,66.33,347.15,64.84,347.15,62.3Z"/><path d="M378,51h7.48c2.89,0,4.26,1.49,4.26,4v1.19c0,2.12-.92,3.51-2.92,3.91l3,6H387.9l-3-5.86h-5.22v5.86H378Zm7.48,7.67c1.68,0,2.5-.78,2.5-2.44V55c0-1.66-.82-2.44-2.5-2.44h-5.71v6.07Z"/><path d="M408.49,64.53h7.41c1.34,0,1.87-.57,1.87-1.81V61c0-1.24-.53-1.81-1.87-1.81h-4c-2.46,0-3.63-1.28-3.63-3.4V54.41c0-2.12,1.17-3.41,3.63-3.41h7v1.6h-7c-1.35,0-1.87.57-1.87,1.81v1.34c0,1.24.52,1.81,1.87,1.81h4c2.45,0,3.63,1.28,3.63,3.4v1.76c0,2.12-1.18,3.4-3.63,3.4h-7.41Z"/><rect class="cls-12" width="75.76" height="75.76" rx="10.89"/><path class="cls-13" d="M37.9,9.49A5.38,5.38,0,0,0,36.2,20a5.27,5.27,0,0,0,1.7.28A5.22,5.22,0,0,0,39.54,20,5.38,5.38,0,0,0,37.9,9.49Zm1.43,6.78a2,2,0,0,1-1.43.6,2,2,0,0,1-2-2,2,2,0,1,1,3.44,1.4Z"/><path class="cls-14" d="M37.67,13.85a10.8,10.8,0,0,1-1.91-3.07c-1-2.27-1.8-6.31,1.43-7.16,2.73-.73,4.53,1.83,5.18,4.14a8.55,8.55,0,0,1-.08,5.34,2.75,2.75,0,0,1-3.68,1.44A3.61,3.61,0,0,1,37.67,13.85Z"/><path class="cls-13" d="M41.78,11.14a5.78,5.78,0,0,1,1.35,2.49c.33,1.28-3.33,1.87-3.33,1.87a2,2,0,0,0,0-1.36C39.47,13.42,41.78,11.14,41.78,11.14Z"/><path class="cls-13" d="M52.93,52.89l-5,6.51a7.26,7.26,0,0,1-4.8,2.77h0l-2.34.41,1-1.4,5-6.47,3.77-4.91.15-.18,1.6-2.09Z"/><polygon class="cls-13" points="50.55 34.37 50.55 49.8 46.78 54.71 46.78 39.27 50.55 34.37"/><polygon class="cls-13" points="32.73 48.6 30.36 56.36 27.54 52.68 29.11 47.53 29.21 47.53 30.71 47.98 32.73 48.6"/><polygon class="cls-13" points="29.21 47.53 29.11 47.53 29.12 47.5 29.21 47.53"/><path class="cls-13" d="M35.18,62.58h0l-2.34-.39a7.35,7.35,0,0,1-4.86-2.8l-5.13-6.68.67-5.16a.06.06,0,0,1,.05,0,.09.09,0,0,1,.07,0l3.94,5.12,2.82,3.68,3.73,4.82Z"/><polygon class="cls-13" points="35.18 62.59 35.14 62.58 35.17 62.58 35.18 62.59"/><path class="cls-13" d="M31.79,36.08c-.27,2.06-.43,3.24-.69,5.29l-4.66-6-.34-.44-2.82-3.67-.31-.4-4.51-5.87,5.29.69Z"/><path class="cls-13" d="M44.48,36.08c.27,2.06.42,3.24.69,5.29l4.65-6,.34-.44L53,31.21l.31-.4,4.51-5.87-5.28.69Z"/><polygon class="cls-13" points="26.11 34.88 23.94 41.98 20.34 40.88 23.28 31.21 26.11 34.88"/><rect class="cls-13" x="35.18" y="62.58" height="0.01"/><path class="cls-13" d="M43.1,28.13H39.86L41,47.53l.77,13.14-.27.92-.75,1L38,66.21l-2.83-3.62h0l-.77-1-.3-.93.73-13.13,1.09-19.4h-3.2l-.94-.94h0l.94-.94H36l.07-1.31L36.21,20a5.36,5.36,0,0,0,1.7.28,5.28,5.28,0,0,0,1.65-.26l.11,4.89.08,1.31H43.1l.94.94h0Z"/><path class="cls-13" d="M33.2,47.06l-.14.47-.33,1.07-2-.62-1.5-.45-.09,0-2.47-.76-.75-.22h0l-4.61-1.41-1.43-2.68.1-.34.37-1.21L23.94,42l7.86,2.4C32.35,45.39,32.65,46,33.2,47.06Z"/></g></g></svg>